<?xml version="1.0" standalone="no"?>
<!DOCTYPE svg PUBLIC "-//W3C//DTD SVG 20010904//EN"
 "http://www.w3.org/TR/2001/REC-SVG-20010904/DTD/svg10.dtd">
<svg version="1.0" xmlns="http://www.w3.org/2000/svg"
 width="100.000000pt" height="100.000000pt" viewBox="0 0 100.000000 100.000000"
 preserveAspectRatio="xMidYMid meet">
<metadata>
Created by potrace 1.14, written by Peter Selinger 2001-2017
</metadata>
<g transform="translate(0.000000,100.000000) scale(0.100000,-0.100000)"
fill="#000000" stroke="none">
<path d="M0 500 l0 -500 500 0 500 0 0 500 0 500 -500 0 -500 0 0 -500z m430
55 c0 -151 -9 -185 -57 -203 -30 -12 -52 -15 -96 -13 -34 1 -87 50 -87 80 0
18 6 21 40 21 29 0 42 -5 50 -20 14 -25 46 -26 60 -1 5 11 10 76 10 145 l0
126 40 0 40 0 0 -135z m270 117 c43 -21 58 -58 41 -101 -7 -17 -22 -33 -32
-36 -17 -6 -16 -9 13 -29 54 -36 51 -112 -5 -146 -26 -16 -50 -20 -134 -20
l-103 0 0 168 c0 93 3 172 7 175 3 4 45 7 92 7 62 0 96 -5 121 -18z"/>
<path d="M570 585 l0 -36 43 3 c39 3 42 5 42 33 0 28 -3 30 -42 33 l-43 3 0
-36z"/>
<path d="M570 450 c0 -39 1 -40 34 -40 49 0 66 9 66 34 0 32 -19 46 -62 46
-38 0 -38 0 -38 -40z"/>
</g>
</svg>
